<?xml version="1.0" standalone="no"?>
<!DOCTYPE svg PUBLIC "-//W3C//DTD SVG 20010904//EN"
 "http://www.w3.org/TR/2001/REC-SVG-20010904/DTD/svg10.dtd">
<svg version="1.0" xmlns="http://www.w3.org/2000/svg"
 width="71.000000pt" height="72.000000pt" viewBox="0 0 71.000000 72.000000"
 preserveAspectRatio="xMidYMid meet">

<g transform="translate(0.000000,72.000000) scale(0.100000,-0.100000)"
fill="#000000" stroke="none">
<path d="M705 360 c0 -201 1 -283 2 -183 2 101 2 265 0 365 -1 101 -2 19 -2
-182z"/>
<path d="M240 578 c-47 -29 -88 -57 -92 -62 -4 -6 -8 -63 -8 -127 0 -113 1
-117 23 -123 43 -11 82 -5 122 19 50 31 69 31 124 0 43 -25 76 -30 119 -19 21
6 22 10 22 130 l0 123 -93 56 c-51 30 -102 55 -112 55 -11 0 -58 -24 -105 -52z
m178 -51 c2 -15 8 -27 13 -27 12 0 12 -37 0 -45 -5 -3 -12 4 -16 14 -8 25 -35
16 -35 -11 0 -17 -3 -18 -15 -8 -21 17 -19 44 5 65 11 10 20 25 20 32 0 26 25
7 28 -20z m-83 -42 l0 -40 -40 0 c-36 0 -40 2 -43 28 -6 47 4 59 45 55 37 -3
38 -4 38 -43z m5 -95 c0 -35 -3 -40 -27 -46 -32 -8 -57 6 -61 35 -6 39 5 51
48 51 l40 0 0 -40z m98 -2 c3 -33 0 -38 -24 -44 -33 -8 -58 6 -62 35 -6 41 5
52 45 49 36 -3 38 -5 41 -40z"/>
<path d="M293 229 c-27 -17 -37 -19 -69 -10 -21 6 -40 8 -43 4 -3 -3 -1 -7 4
-10 35 -13 40 -22 20 -38 -19 -16 -19 -16 9 -10 26 6 28 4 22 -20 -4 -14 -2
-25 3 -25 6 0 15 18 21 40 8 29 17 41 35 46 51 13 62 -32 18 -78 -25 -26 -26
-55 -1 -30 18 18 28 15 28 -9 0 -11 5 -17 10 -14 6 3 10 16 10 27 0 20 1 21
20 3 31 -28 37 -8 7 23 -29 30 -36 69 -13 78 25 10 53 -14 60 -51 4 -19 12
-35 18 -35 6 0 8 10 4 25 -6 24 -5 25 21 19 28 -7 28 -7 10 14 -18 20 -18 20
2 27 12 3 21 11 21 17 0 5 -7 7 -16 4 -44 -17 -63 -16 -95 3 -43 26 -65 26
-106 0z"/>
</g>
</svg>
