<?xml version="1.0" encoding="UTF-8" standalone="no"?>
<!DOCTYPE svg PUBLIC "-//W3C//DTD SVG 1.1//EN" "http://www.w3.org/Graphics/SVG/1.1/DTD/svg11.dtd">
<svg width="100%" height="100%" viewBox="0 0 3508 2481" version="1.1" xmlns="http://www.w3.org/2000/svg" xmlns:xlink="http://www.w3.org/1999/xlink" xml:space="preserve" xmlns:serif="http://www.serif.com/" style="fill-rule:evenodd;clip-rule:evenodd;stroke-linejoin:round;stroke-miterlimit:2;">
    <g>
        <path d="M1029.58,1184.04C1029.58,1180.87 1032.15,1178.3 1035.32,1178.3C1035.32,1178.3 1035.32,1178.3 1035.32,1178.3L1053.43,1207.36L1053.43,1178.3L1058.05,1178.3L1058.05,1214.17L1052.6,1214.17L1034.22,1185.14L1034.22,1214.17L1029.58,1214.17L1029.58,1184.04ZM1043.5,1178.3" style="fill:rgb(0,163,255);fill-rule:nonzero;"/>
        <path d="M1065.1,1188.14L1069.57,1188.14L1069.57,1214.17L1065.1,1214.17L1065.1,1188.14ZM1065.1,1178.3L1065.11,1178.3C1067.57,1178.3 1069.57,1180.3 1069.57,1182.77L1069.57,1183.28L1065.1,1183.28L1065.1,1178.3Z" style="fill:rgb(0,163,255);fill-rule:nonzero;"/>
        <path d="M1086.3,1187.26C1089.24,1187.26 1091.64,1187.98 1093.49,1189.41C1095.33,1190.84 1096.44,1193.31 1096.82,1196.81L1092.55,1196.81C1092.29,1195.2 1091.69,1193.86 1090.76,1192.79C1089.84,1191.73 1088.35,1191.19 1086.3,1191.19C1083.5,1191.19 1081.49,1192.56 1080.29,1195.29C1079.51,1197.07 1079.12,1199.26 1079.12,1201.86C1079.12,1204.48 1079.67,1206.69 1080.78,1208.48C1081.88,1210.27 1083.63,1211.16 1086,1211.16C1087.83,1211.16 1089.27,1210.61 1090.34,1209.49C1091.4,1208.38 1092.14,1206.85 1092.55,1204.91L1096.82,1204.91C1096.33,1208.38 1095.11,1210.91 1093.16,1212.52C1091.2,1214.12 1088.7,1214.92 1085.66,1214.92C1082.24,1214.92 1079.52,1213.67 1077.48,1211.18C1075.45,1208.68 1074.43,1205.56 1074.43,1201.81C1074.43,1197.22 1075.55,1193.65 1077.78,1191.1C1080.01,1188.54 1082.85,1187.26 1086.3,1187.26ZM1085.61,1187.38" style="fill:rgb(0,163,255);fill-rule:nonzero;"/>
        <path d="M1112.1,1187.43C1113.96,1187.43 1115.76,1187.87 1117.5,1188.74C1119.24,1189.61 1120.57,1190.74 1121.48,1192.12C1122.36,1193.44 1122.94,1194.98 1123.23,1196.74C1123.41,1197.53 1123.52,1198.64 1123.58,1200.07C1123.62,1200.7 1123.39,1201.31 1122.95,1201.77C1122.52,1202.23 1121.92,1202.49 1121.28,1202.49C1116.17,1202.5 1104.46,1202.5 1104.46,1202.5C1104.54,1205.15 1105.17,1207.28 1106.34,1208.88C1107.51,1210.48 1109.33,1211.29 1111.78,1211.29C1114.08,1211.29 1115.91,1210.53 1117.28,1209.02C1118.06,1208.14 1118.61,1207.12 1118.94,1205.96L1123.26,1205.96C1123.14,1206.92 1122.77,1207.99 1122.12,1209.17C1121.48,1210.35 1120.76,1211.32 1119.96,1212.07C1118.63,1213.37 1116.98,1214.25 1115.01,1214.7C1113.95,1214.96 1112.75,1215.09 1111.42,1215.09C1108.16,1215.09 1105.4,1213.91 1103.14,1211.54C1100.88,1209.17 1099.75,1205.86 1099.75,1201.59C1099.75,1197.39 1100.89,1193.98 1103.17,1191.36C1105.44,1188.74 1108.42,1187.43 1112.1,1187.43ZM1119.11,1199.01C1118.93,1197.1 1118.51,1195.58 1117.86,1194.44C1116.66,1192.32 1114.65,1191.27 1111.83,1191.27C1109.82,1191.27 1108.12,1191.99 1106.76,1193.45C1105.39,1194.91 1104.66,1196.76 1104.58,1199.01L1119.11,1199.01ZM1111.69,1187.38" style="fill:rgb(0,163,255);fill-rule:nonzero;"/>
        <path d="M1159.17,1199.47L1153.73,1183.62C1153.73,1183.62 1151.2,1190.54 1149.49,1195.24C1149.13,1196.2 1149.28,1197.28 1149.86,1198.12C1150.45,1198.97 1151.42,1199.47 1152.45,1199.47C1155.57,1199.47 1159.17,1199.47 1159.17,1199.47ZM1151.19,1178.3L1156.68,1178.3L1169.69,1214.17L1164.37,1214.17L1160.73,1203.42L1146.55,1203.42L1142.67,1214.17L1137.69,1214.17L1151.19,1178.3ZM1153.7,1178.3" style="fill:rgb(0,163,255);fill-rule:nonzero;"/>
        <path d="M1173.53,1188.14L1178,1188.14L1178,1214.17L1173.53,1214.17L1173.53,1188.14ZM1173.53,1178.3L1173.53,1178.3C1176,1178.3 1178,1180.3 1178,1182.77L1178,1183.28L1173.53,1183.28L1173.53,1178.3Z" style="fill:rgb(0,163,255);fill-rule:nonzero;"/>
        <path d="M1184.76,1188.02L1188.93,1188.02L1188.93,1192.54C1189.27,1191.66 1190.11,1190.59 1191.45,1189.33C1192.78,1188.06 1194.32,1187.43 1196.06,1187.43C1196.14,1187.43 1196.28,1187.44 1196.48,1187.46C1196.5,1187.46 1196.53,1187.46 1196.55,1187.46C1197.08,1187.51 1197.48,1187.95 1197.48,1188.47C1197.48,1189.34 1197.48,1190.62 1197.48,1191.43C1197.48,1191.61 1197.4,1191.79 1197.26,1191.92C1197.13,1192.05 1196.94,1192.11 1196.76,1192.1C1196.76,1192.1 1196.76,1192.1 1196.76,1192.1C1196.54,1192.08 1196.3,1192.07 1196.04,1192.07C1193.82,1192.07 1192.12,1192.78 1190.93,1194.21C1189.75,1195.63 1189.15,1197.27 1189.15,1199.13L1189.15,1214.17L1184.76,1214.17L1184.76,1188.02Z" style="fill:rgb(0,163,255);fill-rule:nonzero;"/>
    </g>
    <g transform="matrix(1,0,0,1,25.7712,-5.98861)">
        <text x="1048.92px" y="1241.32px" style="font-family:'Helvetica';font-size:25px;fill:rgb(109,192,239);">Air cooling</text>
    </g>
</svg>
